<?xml version="1.0" encoding="UTF-8"?>
<svg version="1.1" xmlns="http://www.w3.org/2000/svg" width="273" height="167">
<path d="M0 0 C5.51423544 3.95671958 9.5586198 8.97959867 12.73828125 14.96484375 C16.21078146 13.80734368 16.22279116 13.46832449 17.80078125 10.40234375 C23.42162931 1.0005048 32.92270469 -3.76879161 42.96875 -7.109375 C56.67669829 -10.47599028 70.19564749 -7.39830618 83.51513672 -3.85742188 C89.44999372 -2.34336352 95.43246979 -1.03393839 101.41003418 0.29953003 C104.20165108 0.92261758 106.99208675 1.55090824 109.78257751 2.17901611 C112.43418148 2.77561801 115.0862124 3.37031233 117.73828125 3.96484375 C117.40828125 5.61484375 117.07828125 7.26484375 116.73828125 8.96484375 C107.86371163 8.52889363 99.5993557 7.23853916 90.98828125 5.08984375 C88.70637694 4.5467502 86.42382168 4.00638446 84.140625 3.46875 C83.04476074 3.20980957 81.94889648 2.95086914 80.81982422 2.68408203 C64.39932451 -1.14849538 47.69126273 -3.80256913 32.42578125 5.3515625 C28.13458219 8.35697949 25.33174474 11.42628265 22.73828125 15.96484375 C27.26658994 13.78454697 31.5871308 11.48328221 35.86328125 8.83984375 C49.39283246 0.63948981 64.78385523 2.11407473 79.66162109 5.44677734 C82.37930613 6.12476084 85.03197464 6.95970711 87.69897461 7.81274414 C103.80330082 12.96234971 120.91372045 14.18293307 137.73828125 14.96484375 C137.78100225 16.6309628 137.77891957 18.2986726 137.73828125 19.96484375 C135.626545 22.07658 130.8947929 21.12973793 127.97436523 21.13842773 C127.05382355 21.14511475 126.13328186 21.15180176 125.18484497 21.15869141 C123.17577397 21.17278506 121.16668654 21.1846652 119.15759087 21.19463921 C115.96478864 21.2110381 112.77210469 21.23428428 109.57936096 21.25953674 C100.49738488 21.33028132 91.41535591 21.38996996 82.33325195 21.44165039 C76.78176787 21.47372388 71.23041211 21.51508725 65.67903328 21.56184578 C63.57384657 21.57772152 61.46863023 21.59010839 59.36340141 21.59875298 C35.56182701 20.32782018 35.56182701 20.32782018 14.73828125 28.96484375 C13.41828125 28.96484375 12.09828125 28.96484375 10.73828125 28.96484375 C9.73828125 27.96484375 8.73828125 26.96484375 7.73828125 25.96484375 C-4.24657285 19.33492446 -21.00880341 21.75243626 -34.30859375 21.6484375 C-36.53347122 21.6278326 -38.75834509 21.60683529 -40.98321533 21.58546448 C-46.80274514 21.53060857 -52.62230811 21.48104037 -58.44189453 21.43261719 C-64.39488633 21.3821336 -70.34783074 21.32658857 -76.30078125 21.27148438 C-87.95438648 21.16434989 -99.60803308 21.06280807 -111.26171875 20.96484375 C-112.38671875 17.21484375 -112.38671875 17.21484375 -111.26171875 14.96484375 C-108.73999023 14.60180664 -108.73999023 14.60180664 -105.3828125 14.4375 C-104.15949219 14.36950195 -102.93617187 14.30150391 -101.67578125 14.23144531 C-99.70738281 14.13041504 -99.70738281 14.13041504 -97.69921875 14.02734375 C-81.97593452 13.09342865 -67.60639437 10.58104254 -52.52734375 6.03417969 C-37.33377266 1.47959846 -21.98832666 1.05745559 -7.76953125 8.5234375 C-3.7973086 10.80653744 -0.00864547 13.33113439 3.73828125 15.96484375 C4.23328125 15.46984375 4.23328125 15.46984375 4.73828125 14.96484375 C-1.2545078 6.65090401 -9.10255131 2.05058875 -19.01171875 -0.47265625 C-33.42730691 -2.66583607 -47.43243066 1.39287109 -61.26171875 4.96484375 C-72.06825873 7.6692271 -82.15208533 9.85138527 -93.26171875 7.96484375 C-93.59171875 6.64484375 -93.92171875 5.32484375 -94.26171875 3.96484375 C-93.63910156 3.866875 -93.01648438 3.76890625 -92.375 3.66796875 C-89.00007 3.12195497 -85.63036912 2.5480775 -82.26171875 1.96484375 C-81.51100098 1.8359375 -80.7602832 1.70703125 -79.98681641 1.57421875 C-70.81643573 -0.02159372 -61.82958219 -1.79013192 -52.9050293 -4.46020508 C-34.21005825 -10.03127018 -17.06928752 -10.47181971 0 0 Z M36.73828125 13.96484375 C36.73828125 14.29484375 36.73828125 14.62484375 36.73828125 14.96484375 C47.21947591 15.06737718 57.59135931 14.93658336 68.046875 14.1875 C73.28102848 13.87178916 78.49714303 13.87550617 83.73828125 13.96484375 C70.00156621 6.20208095 50.60657523 7.18478892 36.73828125 13.96484375 Z M-56.26171875 13.96484375 C-55.10671875 13.94421875 -53.95171875 13.92359375 -52.76171875 13.90234375 C-49.97997793 13.85266981 -47.44942071 14.07734304 -44.6796875 14.4609375 C-39.48140023 15.14269003 -34.30947345 15.11093947 -29.07421875 15.08984375 C-28.10291016 15.09371094 -27.13160156 15.09757812 -26.13085938 15.1015625 C-24.72030273 15.09962891 -24.72030273 15.09962891 -23.28125 15.09765625 C-22.43667236 15.09652832 -21.59209473 15.09540039 -20.72192383 15.09423828 C-18.15276311 14.95911323 -15.76885404 14.52870422 -13.26171875 13.96484375 C-17.14472673 9.53578778 -22.09151546 9.25532051 -27.734375 8.73828125 C-36.60500737 8.44393146 -48.48016222 9.38745756 -56.26171875 13.96484375 Z " fill="#D9AD7D" transform="translate(126.26171875,131.03515625)"/>
<path d="M0 0 C0.92646332 -0.0071553 1.85292664 -0.01431061 2.8074646 -0.02168274 C3.81687607 -0.02437164 4.82628754 -0.02706055 5.86628723 -0.02983093 C7.46944794 -0.03968773 7.46944794 -0.03968773 9.10499573 -0.04974365 C12.6436724 -0.06946153 16.18230664 -0.08113624 19.72102356 -0.09111023 C21.53559272 -0.09722352 21.53559272 -0.09722352 23.38681984 -0.10346031 C29.79029291 -0.12431506 36.19374459 -0.13861913 42.59724426 -0.147995 C49.20358578 -0.15905528 55.8095901 -0.19345304 62.41581249 -0.23316669 C67.50228492 -0.25934026 72.58867711 -0.26768755 77.67521095 -0.27127647 C80.10999642 -0.27614083 82.54477835 -0.2877504 84.97949791 -0.30631447 C88.39255193 -0.33071954 91.80473476 -0.32973782 95.21784973 -0.32279968 C96.21714005 -0.33560974 97.21643036 -0.3484198 98.2460022 -0.36161804 C105.71252343 -0.30649554 111.86280369 1.25842469 117.70539856 6.07685852 C122.55434784 11.98095813 124.93195444 16.95576521 124.74836731 24.70576477 C123.83363546 30.53951379 120.99197883 35.56041588 116.80305481 39.64717102 C110.59492949 43.46755583 105.65559774 43.92108121 98.36555481 43.14717102 C93.54086829 41.56179445 89.8978921 38.53006248 87.36555481 34.14717102 C86.16495509 29.67597206 85.99438985 26.24004562 87.49055481 21.83467102 C89.91769896 18.3557644 92.57314001 16.04337842 96.36555481 14.14717102 C101.13556215 14.01597239 104.50916349 14.53546293 108.42805481 17.33467102 C110.67348686 20.59416915 110.81619142 22.27169615 110.36555481 26.14717102 C107.89055481 27.13717102 107.89055481 27.13717102 105.36555481 28.14717102 C105.05617981 27.34279602 104.74680481 26.53842102 104.42805481 25.70967102 C103.60220136 23.25636698 103.60220136 23.25636698 102.36555481 22.14717102 C100.36597117 22.10636319 98.36510227 22.10462746 96.36555481 22.14717102 C94.72377292 25.24831458 94.29750646 26.76912465 94.92805481 30.27217102 C96.69722986 33.81052112 97.64093797 34.79996919 101.36555481 36.14717102 C105.77535123 36.3361623 109.21865012 35.99999758 112.80305481 33.33467102 C116.41726545 28.27477612 117.04858658 24.28378455 116.36555481 18.14717102 C114.68943532 13.4716798 112.69206925 10.63261549 108.36555481 8.14717102 C101.72155398 6.95871397 94.89082919 6.99847365 88.16169739 7.00190735 C87.19612411 6.99854874 86.23055084 6.99519012 85.23571777 6.99172974 C82.07716043 6.98231086 78.91865653 6.98028175 75.76008606 6.97920227 C73.54912291 6.97598523 71.33815998 6.97262082 69.12719727 6.96911621 C64.50848395 6.96314899 59.88978928 6.96127401 55.27107239 6.96186829 C49.35983091 6.9619702 43.44870876 6.94827752 37.53749561 6.93109608 C32.97782849 6.91997175 28.41819028 6.91794915 23.85851097 6.91847801 C21.67887139 6.91730012 19.49923102 6.91288904 17.31960487 6.90514565 C14.27339417 6.89532975 11.22744368 6.89822936 8.18122864 6.9042511 C7.28703217 6.89863159 6.39283569 6.89301208 5.47154236 6.88722229 C-1.03263446 6.91983302 -6.41376464 7.21614445 -11.50944519 11.64717102 C-15.38214777 16.2032917 -15.02222972 20.08572793 -14.98991394 25.92842102 C-14.4738689 30.60118055 -13.19335139 32.16762164 -9.63444519 35.14717102 C-5.02092059 36.68501256 -1.1972295 36.89458961 3.24055481 34.77217102 C5.46220306 33.3195706 5.46220306 33.3195706 6.36555481 31.14717102 C6.55259885 28.45703763 6.45136872 25.85030925 6.36555481 23.14717102 C5.18131155 21.73139625 5.18131155 21.73139625 1.80305481 22.08467102 C0.66867981 22.10529602 -0.46569519 22.12592102 -1.63444519 22.14717102 C-2.62444519 24.12717102 -3.61444519 26.10717102 -4.63444519 28.14717102 C-5.95444519 27.81717102 -7.27444519 27.48717102 -8.63444519 27.14717102 C-9.61817674 24.01711608 -9.82189189 22.58454665 -8.50944519 19.52217102 C-5.47615477 15.68000315 -3.06541119 14.32929397 1.80305481 13.70967102 C6.98442997 14.34598025 9.87870735 16.41251565 13.24055481 20.33467102 C15.0820946 24.93852051 15.26789482 29.40255349 13.70930481 34.14326477 C11.85071282 37.86845993 9.42072907 40.596923 5.61555481 42.48310852 C-0.11598681 44.17470935 -6.48206058 44.31564166 -12.11100769 42.22920227 C-17.45219777 39.13851363 -20.67236605 35.03340844 -22.63444519 29.14717102 C-23.31409394 21.62646769 -23.11882385 15.40782954 -18.63444519 9.14717102 C-13.30714954 3.00029143 -8.08643669 0.04302575 0 0 Z " fill="#D8AC7C" transform="translate(88.63444519042969,-0.1471710205078125)"/>
<path d="M0 0 C2.66639907 2.66639907 2.23641421 4.65244558 2.24884033 8.27766418 C2.24164978 9.15879379 2.23445923 10.0399234 2.22705078 10.94775391 C2.22734283 11.87463516 2.22763489 12.80151642 2.22793579 13.75648499 C2.22653889 16.82993834 2.21096075 19.90315133 2.1953125 22.9765625 C2.19158365 25.10362618 2.18873608 27.23069156 2.18673706 29.35775757 C2.17909052 34.96379312 2.15943327 40.5697255 2.1373291 46.17572021 C2.11689264 51.89317428 2.10774006 57.61064496 2.09765625 63.328125 C2.07618834 74.55212873 2.0420401 85.7760558 2 97 C0.02 97.99 0.02 97.99 -2 99 C-2.99 98.34 -3.98 97.68 -5 97 C-5.28603461 93.94981101 -5.37792773 91.10361698 -5.34057617 88.05224609 C-5.34101425 87.12536484 -5.34145233 86.19848358 -5.34190369 85.24351501 C-5.33980825 82.16994394 -5.31644162 79.09691366 -5.29296875 76.0234375 C-5.28737548 73.89637551 -5.28310412 71.76930966 -5.28010559 69.64224243 C-5.26863565 64.03614687 -5.23914995 58.43028345 -5.20599365 52.82427979 C-5.17533906 47.10684347 -5.16161012 41.38936975 -5.14648438 35.671875 C-5.11428234 24.44781452 -5.06306005 13.22392654 -5 2 C-3.35 1.34 -1.7 0.68 0 0 Z " fill="#D9AC7D" transform="translate(141,40)"/>
<path d="M0 0 C1.2065625 0.0309375 1.2065625 0.0309375 2.4375 0.0625 C3.9940113 3.1755226 3.57590705 6.47633948 3.56689453 9.89282227 C3.56864685 10.70105438 3.57039917 11.5092865 3.57220459 12.3420105 C3.57661596 15.02099741 3.57368789 17.69991864 3.5703125 20.37890625 C3.57098568 22.2345328 3.57195582 24.09015927 3.57321167 25.94578552 C3.57468762 29.83715656 3.57253713 33.72850467 3.56787109 37.61987305 C3.5621699 42.6194087 3.56545593 47.61889072 3.57144356 52.61842442 C3.57504856 56.45041817 3.57391094 60.2823991 3.57131577 64.11439323 C3.57064653 65.95847518 3.57147479 67.80255827 3.57379532 69.64663887 C3.57632127 72.21831494 3.57248225 74.7899028 3.56689453 77.36157227 C3.56891876 78.1309462 3.57094299 78.90032013 3.57302856 79.69300842 C3.55176341 84.94823659 3.55176341 84.94823659 2.4375 86.0625 C0.77132885 86.10313832 -0.89638095 86.105221 -2.5625 86.0625 C-4.1190113 82.9494774 -3.70090705 79.64866052 -3.69189453 76.23217773 C-3.69364685 75.42394562 -3.69539917 74.6157135 -3.69720459 73.7829895 C-3.70161596 71.10400259 -3.69868789 68.42508136 -3.6953125 65.74609375 C-3.69598568 63.8904672 -3.69695582 62.03484073 -3.69821167 60.17921448 C-3.69968762 56.28784344 -3.69753713 52.39649533 -3.69287109 48.50512695 C-3.6871699 43.5055913 -3.69045593 38.50610928 -3.69644356 33.50657558 C-3.70004856 29.67458183 -3.69891094 25.8426009 -3.69631577 22.01060677 C-3.69564653 20.16652482 -3.69647479 18.32244173 -3.69879532 16.47836113 C-3.70132127 13.90668506 -3.69748225 11.3350972 -3.69189453 8.76342773 C-3.69391876 7.9940538 -3.69594299 7.22467987 -3.69802856 6.43199158 C-3.6723641 0.08956986 -3.6723641 0.08956986 0 0 Z " fill="#D9AD7D" transform="translate(124.5625,40.9375)"/>
<path d="M0 0 C4.70588235 0.70588235 4.70588235 0.70588235 6 2 C6.10569379 4.54513004 6.14678172 7.06326326 6.14526367 9.60913086 C6.15030159 10.8042202 6.15030159 10.8042202 6.15544128 12.02345276 C6.16497998 14.67059873 6.16689585 17.31768164 6.16796875 19.96484375 C6.17117929 21.79708381 6.17454321 23.6293236 6.17805481 25.46156311 C6.18405338 29.30763341 6.18589396 33.15368121 6.18530273 36.99975586 C6.18520107 41.93760724 6.19885467 46.87531498 6.21607494 51.81313229 C6.22717204 55.59884814 6.22922265 59.38452902 6.22869301 63.17025948 C6.22987654 64.99119118 6.23431905 66.81212369 6.24202538 68.63303947 C6.25177928 71.17595467 6.2489656 73.71855477 6.24291992 76.26147461 C6.24853943 77.01947357 6.25415894 77.77747253 6.25994873 78.55844116 C6.22831557 83.77168443 6.22831557 83.77168443 4 86 C1.375 85.625 1.375 85.625 -1 85 C-1.02312297 74.06503529 -1.04091485 63.13007634 -1.05181217 52.1950922 C-1.0570411 47.11808982 -1.06413892 42.04110411 -1.07543945 36.96411133 C-1.08626799 32.06879448 -1.09227676 27.17349371 -1.09487724 22.27816582 C-1.09673155 20.40617049 -1.10035228 18.53417609 -1.10573006 16.66218758 C-1.11294004 14.04959301 -1.11399096 11.43706573 -1.11352539 8.82446289 C-1.11712067 8.04259613 -1.12071594 7.26072937 -1.12442017 6.45516968 C-1.11405216 1.11405216 -1.11405216 1.11405216 0 0 Z " fill="#D9AD7E" transform="translate(152,41)"/>
<path d="M0 0 C1.4540625 0.0309375 1.4540625 0.0309375 2.9375 0.0625 C3.75150338 5.02779991 4.07358485 9.82399095 4.03515625 14.859375 C4.0337413 15.57482483 4.03232635 16.29027466 4.03086853 17.02740479 C4.02532338 19.2891478 4.01279304 21.55078757 4 23.8125 C3.99497684 25.34505063 3.99041537 26.87760284 3.98632812 28.41015625 C3.97819277 31.20802851 3.96752668 34.00586269 3.95336914 36.80371094 C3.93801592 39.95655326 3.93772767 43.10839095 3.95336914 46.26123047 C3.97047321 49.73617154 3.9829164 53.21106826 3.99243164 56.68603516 C3.9974652 58.18343813 4.00429253 59.68083619 4.01293945 61.17822266 C4.02511455 63.34538977 4.03075094 65.51249235 4.03515625 67.6796875 C4.04039307 68.97503418 4.04562988 70.27038086 4.05102539 71.60498047 C3.95357049 74.57305855 3.63443852 77.185863 2.9375 80.0625 C0.9575 80.0625 -1.0225 80.0625 -3.0625 80.0625 C-4.55127534 77.08494933 -4.20118512 74.04735401 -4.19189453 70.78295898 C-4.19364685 70.03324829 -4.19539917 69.2835376 -4.19720459 68.5111084 C-4.20161479 66.02691348 -4.19868833 63.54278943 -4.1953125 61.05859375 C-4.19598571 59.33748867 -4.19695587 57.61638368 -4.19821167 55.89527893 C-4.19968746 52.28637793 -4.19753764 48.67750165 -4.19287109 45.06860352 C-4.1871696 40.43227137 -4.19045622 35.79599705 -4.19644356 31.15966702 C-4.20004874 27.60561178 -4.19891086 24.05157037 -4.19631577 20.49751472 C-4.1956466 18.78740495 -4.19647457 17.07729393 -4.19879532 15.36718559 C-4.2013216 12.98230515 -4.19748182 10.5975198 -4.19189453 8.21264648 C-4.19391876 7.49937698 -4.19594299 6.78610748 -4.19802856 6.05122375 C-4.17200138 0.08514289 -4.17200138 0.08514289 0 0 Z " fill="#D7AB7C" transform="translate(110.0625,40.9375)"/>
<path d="M0 0 C1.98 0 3.96 0 6 0 C6 26.4 6 52.8 6 80 C2.535 80.495 2.535 80.495 -1 81 C-1.02312359 70.58657075 -1.04091517 60.17314756 -1.05181217 49.75969791 C-1.05704097 44.92483173 -1.06413854 40.08998306 -1.07543945 35.25512695 C-1.08626847 30.5932288 -1.09227686 25.93134754 -1.09487724 21.26943779 C-1.09673147 19.48675712 -1.10035203 17.70407741 -1.10573006 15.92140388 C-1.11294069 13.4333404 -1.11399093 10.94534757 -1.11352539 8.45727539 C-1.11712067 7.71281158 -1.12071594 6.96834778 -1.12442017 6.20132446 C-1.11405216 1.11405216 -1.11405216 1.11405216 0 0 Z " fill="#D9AD7D" transform="translate(167,41)"/>
<path d="M0 0 C18.81 0 37.62 0 57 0 C57.66 1.32 58.32 2.64 59 4 C58.34 4.99 57.68 5.98 57 7 C54.55758667 7.36076355 54.55758667 7.36076355 51.44873047 7.34057617 C50.28767792 7.34034958 49.12662537 7.34012299 47.9303894 7.33988953 C46.67203278 7.32440567 45.41367615 7.30892181 44.1171875 7.29296875 C42.83264679 7.28872391 41.54810608 7.28447906 40.22463989 7.28010559 C36.80827359 7.2686468 33.39228944 7.23917143 29.97607422 7.20599365 C26.49061249 7.17531462 23.00508906 7.16160494 19.51953125 7.14648438 C12.67953043 7.11430221 5.83978356 7.06309376 -1 7 C-1.33 6.01 -1.66 5.02 -2 4 C-1.34 2.68 -0.68 1.36 0 0 Z " fill="#D6A979" transform="translate(113,27)"/>
<path d="M0 0 C0.04254356 1.99954746 0.04080783 4.00041636 0 6 C-1.82556117 7.82556117 -4.70538603 7.12772403 -7.15625 7.12939453 C-8.47431641 7.13254669 -9.79238281 7.13569885 -11.15039062 7.13894653 C-12.60026075 7.13715675 -14.05013058 7.1351058 -15.5 7.1328125 C-16.97591162 7.13348557 -18.45182313 7.13445563 -19.92773438 7.13571167 C-23.02475029 7.13718848 -26.12173742 7.13503464 -29.21875 7.13037109 C-33.19708549 7.1246738 -37.17535352 7.1279529 -41.15368652 7.13394356 C-44.20247917 7.13754963 -47.25125571 7.13641037 -50.30004883 7.13381577 C-51.76733406 7.13314662 -53.23462074 7.13397447 -54.7019043 7.13629532 C-56.74918593 7.13882257 -58.79647266 7.1342906 -60.84375 7.12939453 C-62.59461914 7.12820114 -62.59461914 7.12820114 -64.38085938 7.12698364 C-67 7 -67 7 -68 6 C-68.04063832 4.33382885 -68.042721 2.66611905 -68 1 C-59.2815568 0.86952882 -50.56311241 0.73913725 -41.84466648 0.60884857 C-37.79675297 0.54835392 -33.74883989 0.48783139 -29.70092773 0.42724609 C-25.79764336 0.36882646 -21.89435791 0.31047882 -17.9910717 0.25218201 C-16.49866637 0.22987963 -15.00626143 0.2075509 -13.51385689 0.18519592 C-11.43054429 0.15399405 -9.34723033 0.12288417 -7.26391602 0.09179688 C-6.07588882 0.07403198 -4.88786163 0.05626709 -3.66383362 0.03796387 C-1 0 -1 0 0 0 Z " fill="#D9AC7C" transform="translate(173,14)"/>
<path d="M0 0 C30.36 0 60.72 0 92 0 C91.01 0.33 90.02 0.66 89 1 C89 1.66 89 2.32 89 3 C79.2730316 3.02315232 69.54606973 3.04092987 59.8190794 3.05181217 C55.30263484 3.05703465 50.78620911 3.06412084 46.26977539 3.07543945 C41.91260912 3.08629081 37.55546098 3.09228163 33.19828224 3.09487724 C31.53448005 3.09672742 29.87067887 3.10034027 28.20688438 3.10573006 C25.87968157 3.11297029 23.55255403 3.11398967 21.2253418 3.11352539 C20.53482224 3.11712067 19.84430267 3.12071594 19.13285828 3.12442017 C16.13284506 3.11792756 13.87290974 2.95763658 11 2 C9.10787263 1.77820215 7.21115528 1.59385985 5.3125 1.4375 C4.31863281 1.35371094 3.32476562 1.26992187 2.30078125 1.18359375 C1.16189453 1.09271484 1.16189453 1.09271484 0 1 C0 0.67 0 0.34 0 0 Z " fill="#DBB085" transform="translate(100,4)"/>
<path d="M0 0 C0.33 0.66 0.66 1.32 1 2 C1.66 2.33 2.32 2.66 3 3 C3 15.66666667 3 28.33333333 3 41 C3.01571045 42.06081787 3.0314209 43.12163574 3.04760742 44.21459961 C3.09886035 47.70261037 3.1362184 51.19022558 3.16479492 54.6784668 C3.17991429 56.18276238 3.20041005 57.68701366 3.22631836 59.19116211 C3.26276534 61.36583189 3.27973261 63.53992405 3.29296875 65.71484375 C3.3086792 67.01542725 3.32438965 68.31601074 3.34057617 69.65600586 C3 73 3 73 0 77 C0 51.59 0 26.18 0 0 Z " fill="#DFB388" transform="translate(111,43)"/>
<path d="M0 0 C2.02481079 -0.36076355 2.02481079 -0.36076355 4.54150391 -0.34057617 C5.95274033 -0.34023628 5.95274033 -0.34023628 7.39248657 -0.33988953 C8.41023163 -0.32440567 9.42797668 -0.30892181 10.4765625 -0.29296875 C11.51694672 -0.28872391 12.55733093 -0.28447906 13.62924194 -0.28010559 C16.96142147 -0.26327482 20.29300241 -0.22561422 23.625 -0.1875 C25.88019962 -0.17245887 28.13540869 -0.15876947 30.390625 -0.14648438 C35.92728855 -0.11335699 41.46360152 -0.0631142 47 0 C47 0.33 47 0.66 47 1 C32.48 1 17.96 1 3 1 C3 1.99 3 2.98 3 4 C19.83 4 36.66 4 54 4 C54 4.33 54 4.66 54 5 C26.775 5.495 26.775 5.495 -1 6 C-1.33 5.01 -1.66 4.02 -2 3 C-1.34 2.01 -0.68 1.02 0 0 Z " fill="#E0B380" transform="translate(113,28)"/>
<path d="M0 0 C5.37532588 0.77957074 10.68952755 1.86781806 16 3 C15.01 4.32 14.02 5.64 13 7 C13.66 7.33 14.32 7.66 15 8 C14.01 8 13.02 8 12 8 C11.67 8.66 11.34 9.32 11 10 C11 9.34 11 8.68 11 8 C10.34 8 9.68 8 9 8 C9 6.68 9 5.36 9 4 C0.75 3.67 -7.5 3.34 -16 3 C-10.51866702 -1.11099974 -6.66043375 -0.56468895 0 0 Z " fill="#DEB283" transform="translate(192,134)"/>
<path d="M0 0 C0 0.99 0 1.98 0 3 C0.68626465 2.92894043 1.3725293 2.85788086 2.07958984 2.78466797 C5.17704318 2.470251 8.27587124 2.17242823 11.375 1.875 C12.45523438 1.76285156 13.53546875 1.65070313 14.6484375 1.53515625 C15.6796875 1.43847656 16.7109375 1.34179688 17.7734375 1.2421875 C18.72653809 1.1479248 19.67963867 1.05366211 20.66162109 0.95654297 C23 1 23 1 25 3 C15.25225132 5.17791348 5.92414569 6.68523229 -4 5 C-4.33 3.68 -4.66 2.36 -5 1 C-2 0 -2 0 0 0 Z " fill="#DFB680" transform="translate(37,134)"/>
<path d="M0 0 C2.97 0.495 2.97 0.495 6 1 C6 1.33 6 1.66 6 2 C10.29 2.33 14.58 2.66 19 3 C19 3.33 19 3.66 19 4 C17.39125 4.2165625 17.39125 4.2165625 15.75 4.4375 C12.24122819 4.87643559 12.24122819 4.87643559 9.875 5.625 C7.38956155 6.12208769 5.4342001 5.60855003 3 5 C3 4.34 3 3.68 3 3 C1.35 3 -0.3 3 -2 3 C-1.34 2.01 -0.68 1.02 0 0 Z " fill="#E1B587" transform="translate(81,135)"/>
<path d="M0 0 C3 0 3 0 5 1 C4.2884375 2.175625 4.2884375 2.175625 3.5625 3.375 C2.66101977 4.88948678 1.78820515 6.4235897 1 8 C-0.32 7.67 -1.64 7.34 -3 7 C-2.38722388 4.03824877 -1.74627478 2.61941217 0 0 Z " fill="#D4A67A" transform="translate(83,20)"/>
<path d="M0 0 C0.7425 0.0825 1.485 0.165 2.25 0.25 C2.25 1.24 2.25 2.23 2.25 3.25 C1.59 3.91 0.93 4.57 0.25 5.25 C-3.375 4.875 -3.375 4.875 -6.75 4.25 C-3.42692308 0.31153846 -3.42692308 0.31153846 0 0 Z " fill="#DDB489" transform="translate(92.75,15.75)"/>
<path d="M0 0 C2.97 0 5.94 0 9 0 C9.042721 1.66611905 9.04063832 3.33382885 9 5 C8 6 8 6 4.9375 6.0625 C3.968125 6.041875 2.99875 6.02125 2 6 C2.99 5.67 3.98 5.34 5 5 C5 4.01 5 3.02 5 2 C5.99 1.67 6.98 1.34 8 1 C5.36 1 2.72 1 0 1 C0 0.67 0 0.34 0 0 Z " fill="#D0A678" transform="translate(255,146)"/>
<path d="M0 0 C1.32 0.99 2.64 1.98 4 3 C-0.29 3 -4.58 3 -9 3 C-9.33 2.34 -9.66 1.68 -10 1 C-6.59826233 -0.04668851 -3.54949951 -0.29579163 0 0 Z " fill="#DFB582" transform="translate(102,134)"/>
<path d="M0 0 C0.99 0.33 1.98 0.66 3 1 C2.67 1.66 2.34 2.32 2 3 C1.84932786 4.4465242 1.75138964 5.8987934 1.68359375 7.3515625 C1.64169922 8.20234375 1.59980469 9.053125 1.55664062 9.9296875 C1.51732422 10.81914063 1.47800781 11.70859375 1.4375 12.625 C1.39431641 13.5221875 1.35113281 14.419375 1.30664062 15.34375 C1.20043139 17.56234283 1.09838806 19.7810488 1 22 C0.67 22 0.34 22 0 22 C0 14.74 0 7.48 0 0 Z " fill="#D6A882" transform="translate(112,81)"/>
<path d="M0 0 C-3.00617269 3.00617269 -5.82381598 2.59585316 -10 3 C-9.67 2.01 -9.34 1.02 -9 0 C-5.8033 -1.37001429 -3.30096158 -0.8252404 0 0 Z " fill="#DFB687" transform="translate(78,138)"/>
<path d="M0 0 C0.66 0 1.32 0 2 0 C2.36923077 4.55384615 2.36923077 4.55384615 0.5 6.8125 C0.005 7.204375 -0.49 7.59625 -1 8 C-1.04241723 5.66705225 -1.04092937 3.33297433 -1 1 C-0.67 0.67 -0.34 0.34 0 0 Z " fill="#DEBC95" transform="translate(112,75)"/>
<path d="M0 0 C2.64 0 5.28 0 8 0 C7.67 0.66 7.34 1.32 7 2 C4.67843403 2.40729228 2.3431213 2.74438677 0 3 C0 2.01 0 1.02 0 0 Z " fill="#DFB577" transform="translate(77,2)"/>
<path d="M0 0 C1.65 0 3.3 0 5 0 C5 0.33 5 0.66 5 1 C3.35 1 1.7 1 0 1 C0 0.67 0 0.34 0 0 Z " fill="#FFB2B2" transform="translate(188,153)"/>
<path d="M0 0 C1.65 0 3.3 0 5 0 C5 0.33 5 0.66 5 1 C3.35 1 1.7 1 0 1 C0 0.67 0 0.34 0 0 Z " fill="#FFA1A1" transform="translate(84,153)"/>
<path d="M0 0 C0.33 0 0.66 0 1 0 C1 1.65 1 3.3 1 5 C0.67 5 0.34 5 0 5 C0 3.35 0 1.7 0 0 Z " fill="#FFCBCB" transform="translate(144,86)"/>
<path d="M0 0 C1 4 1 4 1 4 Z " fill="#FFDFDF" transform="translate(149,86)"/>
<path d="M0 0 C1 4 1 4 1 4 Z " fill="#FF9F9F" transform="translate(144,63)"/>
<path d="M0 0 C1 4 1 4 1 4 Z " fill="#FFBFBF" transform="translate(144,55)"/>
<path d="M0 0 C3 1 3 1 3 1 Z " fill="#E2B863" transform="translate(244,153)"/>
<path d="M0 0 C3 1 3 1 3 1 Z " fill="#FFE2E2" transform="translate(180,153)"/>
<path d="M0 0 C3 1 3 1 3 1 Z " fill="#FFB8B8" transform="translate(68,153)"/>
<path d="M0 0 C3 1 3 1 3 1 Z " fill="#FFFFFF" transform="translate(44,153)"/>
<path d="" fill="#FFAAAA" transform="translate(0,0)"/>
<path d="M0 0 C2 1 2 1 2 1 Z " fill="#FFD4D4" transform="translate(231,153)"/>
<path d="M0 0 C2 1 2 1 2 1 Z " fill="#FFFFFF" transform="translate(207,153)"/>
<path d="M0 0 C2 1 2 1 2 1 Z " fill="#FFD4D4" transform="translate(204,153)"/>
<path d="M0 0 C2 1 2 1 2 1 Z " fill="#FFFFFF" transform="translate(177,153)"/>
<path d="M0 0 C2 1 2 1 2 1 Z " fill="#FFFFFF" transform="translate(100,153)"/>
<path d="M0 0 C2 1 2 1 2 1 Z " fill="#DF9F7F" transform="translate(92,153)"/>
<path d="M0 0 C2 1 2 1 2 1 Z " fill="#FFFFFF" transform="translate(76,153)"/>
<path d="M0 0 C2 1 2 1 2 1 Z " fill="#FFBFBF" transform="translate(55,153)"/>
<path d="" fill="#FF9494" transform="translate(0,0)"/>
<path d="" fill="#FFBFBF" transform="translate(0,0)"/>
<path d="" fill="#FF9494" transform="translate(0,0)"/>
<path d="" fill="#FFFFFF" transform="translate(0,0)"/>
<path d="" fill="#FFBFBF" transform="translate(0,0)"/>
<path d="" fill="#FFFFFF" transform="translate(0,0)"/>
<path d="" fill="#FFFFFF" transform="translate(0,0)"/>
<path d="" fill="#FFFFFF" transform="translate(0,0)"/>
<path d="" fill="#FF7F7F" transform="translate(0,0)"/>
<path d="" fill="#FFFFFF" transform="translate(0,0)"/>
<path d="" fill="#FFFFFF" transform="translate(0,0)"/>
<path d="" fill="#FFFFFF" transform="translate(0,0)"/>
<path d="" fill="#FFFFFF" transform="translate(0,0)"/>
<path d="" fill="#FFFFFF" transform="translate(0,0)"/>
<path d="" fill="#FFFFFF" transform="translate(0,0)"/>
<path d="" fill="#FF7F7F" transform="translate(0,0)"/>
<path d="" fill="#FFFFFF" transform="translate(0,0)"/>
<path d="" fill="#FF7F7F" transform="translate(0,0)"/>
<path d="" fill="#FFFFFF" transform="translate(0,0)"/>
<path d="" fill="#FF7F7F" transform="translate(0,0)"/>
<path d="" fill="#FFFF00" transform="translate(0,0)"/>
<path d="" fill="#FF7F7F" transform="translate(0,0)"/>
<path d="" fill="#FF7F7F" transform="translate(0,0)"/>
<path d="" fill="#FFFFFF" transform="translate(0,0)"/>
<path d="" fill="#FFFFFF" transform="translate(0,0)"/>
<path d="" fill="#FF7F7F" transform="translate(0,0)"/>
<path d="" fill="#FFFFFF" transform="translate(0,0)"/>
<path d="" fill="#FFFFFF" transform="translate(0,0)"/>
<path d="" fill="#FF7F7F" transform="translate(0,0)"/>
<path d="" fill="#FFFFFF" transform="translate(0,0)"/>
<path d="" fill="#FF7F7F" transform="translate(0,0)"/>
<path d="" fill="#FFFFFF" transform="translate(0,0)"/>
<path d="" fill="#FFFF00" transform="translate(0,0)"/>
<path d="" fill="#FFFFFF" transform="translate(0,0)"/>
<path d="" fill="#FFFFFF" transform="translate(0,0)"/>
<path d="" fill="#FFFFFF" transform="translate(0,0)"/>
<path d="" fill="#FFFFFF" transform="translate(0,0)"/>
<path d="" fill="#FFFFFF" transform="translate(0,0)"/>
<path d="" fill="#FFFFFF" transform="translate(0,0)"/>
<path d="" fill="#FFFFFF" transform="translate(0,0)"/>
<path d="" fill="#FFFFFF" transform="translate(0,0)"/>
<path d="" fill="#FFFFFF" transform="translate(0,0)"/>
<path d="" fill="#FFFFFF" transform="translate(0,0)"/>
<path d="" fill="#FFAAAA" transform="translate(0,0)"/>
<path d="" fill="#FFFFFF" transform="translate(0,0)"/>
<path d="" fill="#FF7F7F" transform="translate(0,0)"/>
<path d="" fill="#FFFFFF" transform="translate(0,0)"/>
<path d="" fill="#FFFFFF" transform="translate(0,0)"/>
<path d="" fill="#FFFFFF" transform="translate(0,0)"/>
<path d="" fill="#FFFFFF" transform="translate(0,0)"/>
<path d="" fill="#FFFFFF" transform="translate(0,0)"/>
<path d="" fill="#FFFFFF" transform="translate(0,0)"/>
<path d="" fill="#FFFFFF" transform="translate(0,0)"/>
<path d="" fill="#FFFFFF" transform="translate(0,0)"/>
<path d="" fill="#FFFFFF" transform="translate(0,0)"/>
<path d="" fill="#FFFFFF" transform="translate(0,0)"/>
<path d="" fill="#FF7F7F" transform="translate(0,0)"/>
<path d="" fill="#FFFFFF" transform="translate(0,0)"/>
<path d="" fill="#FFFFFF" transform="translate(0,0)"/>
<path d="" fill="#FFFFFF" transform="translate(0,0)"/>
<path d="" fill="#FFAAAA" transform="translate(0,0)"/>
<path d="" fill="#FFFFFF" transform="translate(0,0)"/>
<path d="" fill="#FFFFFF" transform="translate(0,0)"/>
<path d="" fill="#FFFFFF" transform="translate(0,0)"/>
<path d="" fill="#FFFFFF" transform="translate(0,0)"/>
<path d="" fill="#FFAAAA" transform="translate(0,0)"/>
<path d="" fill="#FF7F7F" transform="translate(0,0)"/>
<path d="" fill="#FFFFFF" transform="translate(0,0)"/>
<path d="" fill="#FFFFFF" transform="translate(0,0)"/>
<path d="" fill="#FFFFFF" transform="translate(0,0)"/>
<path d="" fill="#FFFFFF" transform="translate(0,0)"/>
<path d="" fill="#FFFF00" transform="translate(0,0)"/>
<path d="" fill="#FFFFFF" transform="translate(0,0)"/>
<path d="" fill="#FFFF00" transform="translate(0,0)"/>
<path d="" fill="#FF7F7F" transform="translate(0,0)"/>
<path d="" fill="#FFFFFF" transform="translate(0,0)"/>
<path d="" fill="#FF7F7F" transform="translate(0,0)"/>
<path d="" fill="#FFFF00" transform="translate(0,0)"/>
<path d="" fill="#FFFFFF" transform="translate(0,0)"/>
<path d="" fill="#FF7F7F" transform="translate(0,0)"/>
</svg>
